<svg xmlns="http://www.w3.org/2000/svg" viewBox="0 0 1194 792" width="1194" height="792">
	<defs>
		<clipPath clipPathUnits="userSpaceOnUse" id="cp1">
			<path d="M-154 -79L1347 -79L1347 923L-154 923Z" />
		</clipPath>
		<linearGradient id="grd1" gradientUnits="userSpaceOnUse"  x1="-4.986" y1="397.159" x2="1198.986" y2="397.159">
			<stop offset="0" stop-color="#6d4dfe"  />
			<stop offset="1" stop-color="#dc86b0"  />
		</linearGradient>
		<linearGradient id="grd2" gradientUnits="userSpaceOnUse"  x1="825.499" y1="217.48" x2="1107.292" y2="217.48">
			<stop offset="0" stop-color="#6d4dfe"  />
			<stop offset="1" stop-color="#dc86b0"  />
		</linearGradient>
		<linearGradient id="grd3" gradientUnits="userSpaceOnUse"  x1="774.297" y1="461.154" x2="897.712" y2="461.154">
			<stop offset="0" stop-color="#6d4dfe"  />
			<stop offset="1" stop-color="#dc86b0"  />
		</linearGradient>
		<linearGradient id="grd4" gradientUnits="userSpaceOnUse"  x1="1051.028" y1="169.736" x2="1174.444" y2="169.736">
			<stop offset="0" stop-color="#6d4dfe"  />
			<stop offset="1" stop-color="#dc86b0"  />
		</linearGradient>
		<linearGradient id="grd5" gradientUnits="userSpaceOnUse"  x1="836.548" y1="121.992" x2="959.963" y2="121.992">
			<stop offset="0" stop-color="#6d4dfe"  />
			<stop offset="1" stop-color="#dc86b0"  />
		</linearGradient>
		<linearGradient id="grd6" gradientUnits="userSpaceOnUse"  x1="703.674" y1="107.523" x2="986.773" y2="107.523">
			<stop offset="0" stop-color="#6d4dfe"  />
			<stop offset="1" stop-color="#dc86b0"  />
		</linearGradient>
		<linearGradient id="grd7" gradientUnits="userSpaceOnUse"  x1="506.801" y1="576.837" x2="225.008" y2="576.837">
			<stop offset="0" stop-color="#dc86b0"  />
			<stop offset="1" stop-color="#6d4dfe"  />
		</linearGradient>
		<linearGradient id="grd8" gradientUnits="userSpaceOnUse"  x1="356.059" y1="523.533" x2="232.644" y2="523.533">
			<stop offset="0" stop-color="#dc86b0"  />
			<stop offset="1" stop-color="#6d4dfe"  />
		</linearGradient>
		<linearGradient id="grd9" gradientUnits="userSpaceOnUse"  x1="190.947" y1="624.582" x2="67.531" y2="624.582">
			<stop offset="0" stop-color="#dc86b0"  />
			<stop offset="1" stop-color="#6d4dfe"  />
		</linearGradient>
		<linearGradient id="grd10" gradientUnits="userSpaceOnUse"  x1="476.98" y1="672.326" x2="353.565" y2="672.326">
			<stop offset="0" stop-color="#dc86b0"  />
			<stop offset="1" stop-color="#6d4dfe"  />
		</linearGradient>
		<linearGradient id="grd11" gradientUnits="userSpaceOnUse"  x1="609.854" y1="686.795" x2="326.755" y2="686.795">
			<stop offset="0" stop-color="#dc86b0"  />
			<stop offset="1" stop-color="#6d4dfe"  />
		</linearGradient>
	</defs>
	<style>
		tspan { white-space:pre }
		.shp0 { fill: #282535 } 
		.shp1 { fill: url(#grd1) } 
		.shp2 { opacity: 0.502;fill: url(#grd2) } 
		.shp3 { opacity: 0.502;fill: url(#grd3) } 
		.shp4 { opacity: 0.502;fill: url(#grd4) } 
		.shp5 { opacity: 0.502;fill: url(#grd5) } 
		.shp6 { opacity: 0.502;fill: url(#grd6) } 
		.shp7 { opacity: 0.502;fill: url(#grd7) } 
		.shp8 { opacity: 0.502;fill: url(#grd8) } 
		.shp9 { opacity: 0.502;fill: url(#grd9) } 
		.shp10 { opacity: 0.502;fill: url(#grd10) } 
		.shp11 { opacity: 0.502;fill: url(#grd11) } 
	</style>
	<g id="Page 1" clip-path="url(#cp1)">
		<path id="Path 1" class="shp0" d="M-153 922L1347 922L1347 -78L-153 -78L-153 922Z" />
		<path id="Path 3" class="shp1" d="M1198.99 797.25L-4.99 797.25L-4.99 -2.93L1198.99 -2.93L1198.99 797.25Z" />
		<path id="Path 10" class="shp2" d="M828.68 355.19C822.35 348.86 822.35 338.49 828.68 332.15L1081.07 79.77C1087.4 73.43 1097.77 73.43 1104.11 79.77C1110.44 86.11 1110.44 96.47 1104.11 102.81L851.72 355.19C845.39 361.53 835.02 361.53 828.68 355.19Z" />
		<path id="Path 11" class="shp3" d="M775.66 521.5C772.95 518.78 772.95 514.34 775.66 511.62L886.47 400.81C889.19 398.1 893.63 398.1 896.35 400.81C899.06 403.53 899.06 407.97 896.35 410.69L785.54 521.5C782.82 524.21 778.38 524.21 775.66 521.5Z" />
		<path id="Path 12" class="shp4" d="M1052.39 230.08C1049.68 227.36 1049.68 222.92 1052.39 220.21L1163.21 109.39C1165.92 106.68 1170.36 106.68 1173.08 109.39C1175.79 112.11 1175.79 116.55 1173.08 119.27L1062.27 230.08C1059.55 232.79 1055.11 232.79 1052.39 230.08Z" />
		<path id="Path 13" class="shp5" d="M837.91 182.33C835.2 179.62 835.2 175.18 837.91 172.46L948.72 61.65C951.44 58.93 955.88 58.93 958.6 61.65C961.31 64.36 961.31 68.81 958.6 71.52L847.79 182.33C845.07 185.05 840.63 185.05 837.91 182.33Z" />
		<path id="Path 14" class="shp6" d="M706.85 191.76C700.52 198.09 700.52 208.46 706.85 214.8C713.19 221.13 723.56 221.13 729.89 214.8L947.62 -2.93L901.54 -2.93L706.85 191.76Z" />
		<path id="Path 15" class="shp7" d="M503.62 439.13C509.95 445.46 509.95 455.83 503.62 462.17L251.23 714.55C244.9 720.88 234.53 720.88 228.19 714.55C221.86 708.21 221.86 697.84 228.19 691.51L480.58 439.13C486.91 432.79 497.28 432.79 503.62 439.13Z" />
		<path id="Path 16" class="shp8" d="M354.69 463.19C357.41 465.91 357.41 470.35 354.69 473.06L243.88 583.88C241.17 586.59 236.72 586.59 234.01 583.88C231.29 581.16 231.29 576.72 234.01 574L344.82 463.19C347.54 460.47 351.98 460.47 354.69 463.19Z" />
		<path id="Path 17" class="shp9" d="M189.58 564.24C192.3 566.96 192.3 571.4 189.58 574.11L78.77 684.92C76.05 687.64 71.61 687.64 68.9 684.92C66.18 682.21 66.18 677.77 68.9 675.05L179.71 564.24C182.42 561.52 186.87 561.52 189.58 564.24Z" />
		<path id="Path 18" class="shp10" d="M475.62 611.98C478.33 614.7 478.33 619.14 475.62 621.86L364.8 732.67C362.09 735.38 357.64 735.38 354.93 732.67C352.21 729.95 352.21 725.51 354.93 722.79L465.74 611.98C468.46 609.27 472.9 609.27 475.62 611.98Z" />
		<path id="Path 19" class="shp11" d="M606.68 602.56C613.01 596.22 613.01 585.86 606.68 579.52C600.34 573.18 589.97 573.18 583.64 579.52L365.91 797.25L411.98 797.25L606.68 602.56Z" />
	</g>
</svg>